<?xml version="1.0"?>
<!-- Generated by SVGo -->
<svg width="720" height="1500"
     xmlns="http://www.w3.org/2000/svg"
     xmlns:xlink="http://www.w3.org/1999/xlink">
<defs>
<style type="text/css">
<![CDATA[
@font-face {
  font-family: 'Caladea';
  font-style: normal;
  font-weight: 400;
  src: url(https://fonts.gstatic.com/s/caladea/v7/kJEzBugZ7AAjhybUvRh9_w.ttf) format('truetype');
}
@font-face {
  font-family: 'Figtree';
  font-style: normal;
  font-weight: 400;
  src: url(https://fonts.gstatic.com/s/figtree/v6/_Xmz-HUzqDCFdgfMsYiV_F7wfS-Bs_d_QG5ZyEU.ttf) format('truetype');
}
@font-face {
  font-family: 'Noto Music';
  font-style: normal;
  font-weight: 400;
  src: url(https://fonts.gstatic.com/s/notomusic/v20/pe0rMIiSN5pO63htf1sxEtCaAw.ttf) format('truetype');
}
@font-face {
  font-family: 'Old Standard TT';
  font-style: normal;
  font-weight: 400;
  src: url(https://fonts.gstatic.com/s/oldstandardtt/v20/MwQubh3o1vLImiwAVvYawgcf2eVeqlq9.ttf) format('truetype');
}
]]>
</style>
</defs>
<text x="263" y="100" >5. TUHAN ALLAH, NAMAMU</text>
<text x="50" y="125" >do = f</text>
<text x="124" y="125" >3 ketuk</text>
<g style="staff" >
<g style="measure-align" >
<g class='note' style='font-family:Old Standard TT;font-weight:500' >
<text x="50" y="195" >1</text>
<text x="88" y="195" >.</text>
<text x="123" y="195" >1</text>
<text x="175.000000" y="201.000000" style="font-family:Noto Music">  <tspan x="175.000000" y="201.000000" font-size="180%"> &#x01D100; </tspan>  </text><g class='lyric' style='font-family:Caladea' >
<text x="50" y="220" >Tu</text>
<text x="50" y="240" >i</text>
<text x="123" y="220" >han</text>
<text x="123" y="240" >si</text>
</g>
<g class='staff-text' >
<text x="50" y="167" font-style="italic" ></text>
</g>
</g>
</g>
<g style="measure-align" >
<g class='note' style='font-family:Old Standard TT;font-weight:500' >
<text x="208" y="195" >1</text>
<text x="247" y="195" >7</text>
<text x="295" y="195" >1</text>
<text x="348.000000" y="201.000000" style="font-family:Noto Music">  <tspan x="348.000000" y="201.000000" font-size="180%"> &#x01D100; </tspan>  </text><g class='lyric' style='font-family:Caladea' >
<text x="208" y="220" >Al</text>
<text x="208" y="240" >du</text>
<text x="295" y="220" >lah</text>
<text x="295" y="240" >ni</text>
</g>
<g class='octaves' >
<circle cx="252" cy="200" r="1" style="fill:#000000;fill-opacity:1;stroke:#000000;stroke-width:0.5" />
</g>
</g>
</g>
<g style="measure-align" >
<g class='note' style='font-family:Old Standard TT;font-weight:500' >
<text x="381" y="195" >2</text>
<text x="426" y="195" >3</text>
<text x="474" y="195" >2</text>
<text x="517.000000" y="201.000000" style="font-family:Noto Music">  <tspan x="517.000000" y="201.000000" font-size="180%"> &#x01D100; </tspan>  </text><g class='lyric' style='font-family:Caladea' >
<text x="381" y="220" >na</text>
<text x="381" y="240" >a</text>
<text x="474" y="220" >ma</text>
<text x="474" y="240" >su</text>
</g>
</g>
</g>
<g style="measure-align" >
<g class='note' style='font-family:Old Standard TT;font-weight:500' >
<text x="550" y="195" >1</text>
<text x="588" y="195" >.</text>
<text x="636" y="195" >0</text>
<text x="670.000000" y="201.000000" style="font-family:Noto Music">  <tspan x="670.000000" y="201.000000" font-size="180%"> &#x01D100; </tspan>  </text><g class='lyric' style='font-family:Caladea' >
<text x="550" y="220" >Mu</text>
<text x="550" y="240" >jud</text>
</g>
</g>
</g>
<g style="hyphens" >
<text x="514.2400" y="240">-</text><text x="516.9950" y="220">-</text><text x="430.4600" y="220">-</text><text x="339.4200" y="240">-</text><text x="254.7600" y="240">-</text><text x="253.1950" y="220">-</text><text x="83.4500" y="240">-</text><text x="90.0600" y="220">-</text></g>
<g class='slurties' >
<path d="M215,200 Q231,208 247,203" style="fill:none;stroke:#000000;stroke-linecap:round;stroke-width:1.5" />
<path d="M388,200 Q409,208 429,200" style="fill:none;stroke:#000000;stroke-linecap:round;stroke-width:1.5" />
</g>
</g>
<g style="staff" >
<g style="measure-align" >
<g class='note' style='font-family:Old Standard TT;font-weight:500' >
<text x="50" y="275" >3</text>
<text x="85" y="275" >.</text>
<text x="127" y="275" >3</text>
<text x="176.000000" y="281.000000" style="font-family:Noto Music">  <tspan x="176.000000" y="281.000000" font-size="180%"> &#x01D100; </tspan>  </text><g class='lyric' style='font-family:Caladea' >
<text x="50" y="300" >ka</text>
<text x="50" y="320" >di</text>
<text x="127" y="300" >mi</text>
<text x="127" y="320" >ha</text>
</g>
</g>
</g>
<g style="measure-align" >
<g class='note' style='font-family:Old Standard TT;font-weight:500' >
<text x="206" y="275" >3</text>
<text x="242" y="275" >4</text>
<text x="287" y="275" >5</text>
<text x="332.000000" y="281.000000" style="font-family:Noto Music">  <tspan x="332.000000" y="281.000000" font-size="180%"> &#x01D100; </tspan>  </text><g class='lyric' style='font-family:Caladea' >
<text x="206" y="300" >pu</text>
<text x="206" y="320" >da</text>
<text x="287" y="300" >ji</text>
<text x="287" y="320" >pan</text>
</g>
</g>
</g>
<g style="measure-align" >
<g class='note' style='font-family:Old Standard TT;font-weight:500' >
<text x="362" y="275" >5</text>
<text x="411" y="275" >4</text>
<text x="456" y="275" >3</text>
<text x="505.000000" y="281.000000" style="font-family:Noto Music">  <tspan x="505.000000" y="281.000000" font-size="180%"> &#x01D100; </tspan>  </text><g class='lyric' style='font-family:Caladea' >
<text x="362" y="300" >dan</text>
<text x="362" y="320" >Mu</text>
<text x="456" y="300" >masy</text>
<text x="456" y="320" >ya</text>
</g>
</g>
</g>
<g style="measure-align" >
<g class='note' style='font-family:Old Standard TT;font-weight:500' >
<text x="535" y="275" >3</text>
<text x="578" y="275" >2</text>
<text x="628" y="275" >0</text>
<text x="670.000000" y="281.000000" style="font-family:Noto Music"> <tspan x="665.000000" y="275.000000">:</tspan> <tspan x="670.000000" y="281.000000" font-size="180%"> &#x01D102; </tspan>  </text><g class='lyric' style='font-family:Caladea' >
<text x="535" y="300" >hur</text>
<text x="535" y="320" >Tu</text>
<text x="578" y="300" >kan</text>
<text x="578" y="320" >han!</text>
</g>
</g>
</g>
<g style="hyphens" >
<text x="560.0600" y="320">-</text><text x="563.2000" y="300">-</text><text x="507.7250" y="300">-</text><text x="331.6200" y="320">-</text><text x="249.1500" y="320">-</text><text x="249.7600" y="300">-</text><text x="169.4200" y="320">-</text><text x="91.2050" y="300">-</text></g>
<g class='slurties' >
<path d="M213,280 Q229,288 245,280" style="fill:none;stroke:#000000;stroke-linecap:round;stroke-width:1.5" />
<path d="M369,280 Q392,288 414,280" style="fill:none;stroke:#000000;stroke-linecap:round;stroke-width:1.5" />
</g>
</g>
<g style="staff" >
<g style="measure-align" >
<g class='note' style='font-family:Old Standard TT;font-weight:500' >
<text x="50" y="355" >2</text>
<text x="88" y="355" >.</text>
<text x="123" y="355" >3</text>
<text x="173.000000" y="361.000000" style="font-family:Noto Music">  <tspan x="173.000000" y="361.000000" font-size="180%"> &#x01D100; </tspan>  </text><g class='lyric' style='font-family:Caladea' >
<text x="50" y="380" >Ba</text>
<text x="123" y="380" >la</text>
</g>
</g>
</g>
<g style="measure-align" >
<g class='note' style='font-family:Old Standard TT;font-weight:500' >
<text x="207" y="355" >4</text>
<text x="250" y="355" >3</text>
<text x="299" y="355" >2</text>
<text x="352.000000" y="361.000000" style="font-family:Noto Music">  <tspan x="352.000000" y="361.000000" font-size="180%"> &#x01D100; </tspan>  </text><g class='lyric' style='font-family:Caladea' >
<text x="207" y="380" >sor</text>
<text x="299" y="380" >ga</text>
</g>
</g>
</g>
<g style="measure-align" >
<g class='note' style='font-family:Old Standard TT;font-weight:500' >
<text x="385" y="355" >3</text>
<text x="424" y="355" >.</text>
<text x="462" y="355" >4</text>
<text x="515.000000" y="361.000000" style="font-family:Noto Music">  <tspan x="515.000000" y="361.000000" font-size="180%"> &#x01D100; </tspan>  </text><g class='lyric' style='font-family:Caladea' >
<text x="385" y="380" >me</text>
<text x="462" y="380" >nyem</text>
</g>
</g>
</g>
<g style="measure-align" >
<g class='note' style='font-family:Old Standard TT;font-weight:500' >
<text x="549" y="355" >5</text>
<text x="588" y="355" >.</text>
<text x="636" y="355" >0</text>
<text x="670.000000" y="361.000000" style="font-family:Noto Music">  <tspan x="670.000000" y="361.000000" font-size="180%"> &#x01D100; </tspan>  </text><g class='lyric' style='font-family:Caladea' >
<text x="549" y="380" >bah</text>
</g>
</g>
</g>
<g style="hyphens" >
<text x="518.8250" y="380">-</text><text x="428.2650" y="380">-</text><text x="257.8850" y="380">-</text><text x="89.6250" y="380">-</text></g>
<g class='slurties' >
<path d="M214,360 Q234,368 253,360" style="fill:none;stroke:#000000;stroke-linecap:round;stroke-width:1.5" />
</g>
</g>
<g style="staff" >
<g style="measure-align" >
<g class='note' style='font-family:Old Standard TT;font-weight:500' >
<text x="50" y="435" >6</text>
<text x="87" y="435" >.</text>
<text x="118" y="435" >6</text>
<text x="170.000000" y="441.000000" style="font-family:Noto Music">  <tspan x="170.000000" y="441.000000" font-size="180%"> &#x01D100; </tspan>  </text><g class='lyric' style='font-family:Caladea' >
<text x="50" y="460" >Di</text>
<text x="118" y="460" >kau</text>
</g>
</g>
</g>
<g style="measure-align" >
<g class='note' style='font-family:Old Standard TT;font-weight:500' >
<text x="203" y="435" >5</text>
<text x="251" y="435" >4</text>
<text x="299" y="435" >3</text>
<text x="351.000000" y="441.000000" style="font-family:Noto Music">  <tspan x="351.000000" y="441.000000" font-size="180%"> &#x01D100; </tspan>  </text><g class='lyric' style='font-family:Caladea' >
<text x="203" y="460" >Kha</text>
<text x="299" y="460" >lik</text>
</g>
</g>
</g>
<g style="measure-align" >
<g class='note' style='font-family:Old Standard TT;font-weight:500' >
<text x="384" y="435" >4</text>
<text x="419" y="435" >3</text>
<text x="467" y="435" >2</text>
<text x="515.000000" y="441.000000" style="font-family:Noto Music">  <tspan x="515.000000" y="441.000000" font-size="180%"> &#x01D100; </tspan>  </text><g class='lyric' style='font-family:Caladea' >
<text x="384" y="460" >se</text>
<text x="467" y="460" >mes</text>
</g>
</g>
</g>
<g style="measure-align" >
<g class='note' style='font-family:Old Standard TT;font-weight:500' >
<text x="548" y="435" >1</text>
<text x="586" y="435" >.</text>
<text x="632" y="435" >0</text>
<text x="670.000000" y="441.000000" style="font-family:Noto Music">  <tspan x="670.000000" y="441.000000" font-size="180%"> &#x01D102; </tspan>  </text><g class='lyric' style='font-family:Caladea' >
<text x="548" y="460" >ta!</text>
</g>
</g>
</g>
<g style="hyphens" >
<text x="515.4050" y="460">-</text><text x="426.9000" y="460">-</text><text x="258.9600" y="460">-</text><text x="85.9500" y="460">-</text></g>
<g class='slurties' >
<path d="M210,440 Q232,448 254,440" style="fill:none;stroke:#000000;stroke-linecap:round;stroke-width:1.5" />
</g>
</g>
<g class='verses' style='font-family:Caladea' >
<g class='verse' >
<text x="155" y="515" >2. </text>
<text x="174" y="515" > Kerubim dan serafim</text>
<text x="174" y="540" > memuliakan Yang Trisuci;</text>
<text x="174" y="565" > para rasul dan nabi,</text>
<text x="174" y="590" > martir yang berjubah putih</text>
<text x="174" y="615" > G&#39;reja yang kudus, esa,</text>
<text x="174" y="640" > kepadaMu menyembah.</text>
<g >
<path d="M220,542 Q225,547 232,542" style="fill:none;stroke:#000000;stroke-linecap:round;stroke-width:1.1" />
</g>
</g>
<g class='verse' >
<text x="155" y="700" >3. </text>
<text x="174" y="700" > Bapa agung dan kudus,</text>
<text x="174" y="725" > mahamurah dan rahmani,</text>
<text x="174" y="750" > Putra Tunggal, Penebus,</text>
<text x="174" y="775" > Roh, Penghibur yang sejati,</text>
<text x="174" y="800" > langit-bumiMu penuh</text>
<text x="174" y="825" > kemuliaan namaMu!</text>
<g >
<path d="M215,827 Q220,832 227,827" style="fill:none;stroke:#000000;stroke-linecap:round;stroke-width:1.1" />
</g>
</g>
<g class='verse' >
<text x="154" y="885" >4. </text>
<text x="174" y="885" > Kristus, Raja mulia,</text>
<text x="174" y="910" > Putra Bapa yang abadi,</text>
<text x="174" y="935" > Kautebus manusia</text>
<text x="174" y="960" > oleh kurbanMu di salib.</text>
<text x="174" y="985" > Kuasa maut menyerah,</text>
<text x="174" y="1010" > sorga pun terbukalah!</text>
<g >
<path d="M184,987 Q192,992 200,987" style="fill:none;stroke:#000000;stroke-linecap:round;stroke-width:1.1" />
</g>
</g>
<g class='verse' >
<text x="391" y="515" >5. </text>
<text x="410" y="515" > TakhtaMu kekal teguh</text>
<text x="410" y="540" > pada Sisi kanan Bapa;</text>
<text x="410" y="565" > dalam penghakimanMu,</text>
<text x="410" y="590" > tolong umatMu yang papa:</text>
<text x="410" y="615" > diri kami yang lemah</text>
<text x="410" y="640" > dalam Dikau s&#39;lamatlah!</text>
<g >
</g>
</g>
<g class='verse' >
<text x="391" y="700" >6. </text>
<text x="410" y="700" > Tiap hari namaMu</text>
<text x="410" y="725" > kami puji dan muliakan</text>
<text x="410" y="750" > kini dan selalu t&#39;rus</text>
<text x="410" y="775" > sampai kesudahan zaman</text>
<text x="410" y="800" > Buat kami bertekun</text>
<text x="410" y="825" > hingga Hari DatangMu.</text>
<g >
<path d="M532,727 Q537,732 544,727" style="fill:none;stroke:#000000;stroke-linecap:round;stroke-width:1.1" />
</g>
</g>
<g class='verse' >
<text x="391" y="885" >7. </text>
<text x="410" y="885" > Tuhan kasihanilah!</text>
<text x="410" y="910" > Kasihani kami ini;</text>
<text x="410" y="935" > dalam cahya kurnia</text>
<text x="410" y="960" > tuntun yang telah Kaupilih.</text>
<text x="410" y="985" > Kau Harapan umatMu:</text>
<text x="410" y="1010" > kasihMu kekal teguh!</text>
<g >
</g>
</g>
</g>
<g class='credit' style="font-size:60%;font-family:'Figtree';font-weight:600" >
<text x="50" y="1070">Syair :</text><text x="80" y="1070"><tspan font-style="italic">Grosser&#160;&#160;Gott,&#160;&#160;wir&#160;&#160;loben&#160;&#160;dich,</tspan>&#160;&#160;Ignaz&#160;&#160;Franz&#160;&#160;1768,&#160;&#160;menurut&#160;&#160;<tspan font-style="italic">Te&#160;&#160;Deum&#160;&#160;lau-Damus,</tspan>&#160;&#160;awal&#160;&#160;abad&#160;&#160;ke-5,&#160;&#160;terj.&#160;&#160;HA&#160;&#160;Pandopo/J.M.&#160;&#160;Malessy</text><text x="80" y="1085">1975/83</text><text x="50" y="1100" >Lagu : Austria (Wina) 1774</text>
<text x="607" y="1100" >BE  21, NR  11</text>
</g>
</svg>
