<?xml version="1.0"?>
<!-- Generated by SVGo -->
<svg width="720" height="2000"
     xmlns="http://www.w3.org/2000/svg"
     xmlns:xlink="http://www.w3.org/1999/xlink" style="background-color: white;">
<defs>
<style type="text/css">
<![CDATA[
@font-face {
  font-family: 'Caladea';
  font-style: normal;
  font-weight: 400;
  src: url(https://fonts.gstatic.com/s/caladea/v8/kJEzBugZ7AAjhybUvRh9_w.ttf) format('truetype');
}
@font-face {
  font-family: 'Figtree';
  font-style: normal;
  font-weight: 400;
  src: url(https://fonts.gstatic.com/s/figtree/v9/_Xmz-HUzqDCFdgfMsYiV_F7wfS-Bs_d_QG5ZyEU.ttf) format('truetype');
}
@font-face {
  font-family: 'Noto Music';
  font-style: normal;
  font-weight: 400;
  src: url(https://fonts.gstatic.com/s/notomusic/v21/pe0rMIiSN5pO63htf1sxEtCaAw.ttf) format('truetype');
}
@font-face {
  font-family: 'Old Standard TT';
  font-style: normal;
  font-weight: 400;
  src: url(https://fonts.gstatic.com/s/oldstandardtt/v22/MwQubh3o1vLImiwAVvYawgcf2eVeqlq9.ttf) format('truetype');
}
]]>
</style>
</defs>
<text x="258" y="100" >46. BESARKAN NAMA TUHAN</text>
<text x="50" y="125" >la = d</text>
<text x="123" y="125" >2 ketuk</text>
<g style="staff" >
<g style="measure-align" >
<g class='lyric' style='font-family:Caladea' >
<text x="50" y="200" >Be</text>
</g>
<g class='note' style='font-family:Old Standard TT;font-weight:500' >
<text x="50" y="175" >6</text>
<circle cx="55" cy="180" r="1" style="fill:#000000;fill-opacity:1;stroke:#000000;stroke-width:0.5" />
<text x="83.000000" y="181.000000" style="font-family:Noto Music">  <tspan x="83.000000" y="181.000000" font-size="180%"> &#x01D100; </tspan>  </text><g class='beam' >
<line x1="47" y1="156" x2="62" y2="156" style="fill:none;stroke:#000000;stroke-linecap:round;stroke-width:1.2" />
</g>
</g>
</g>
<g style="measure-align" >
<g class='lyric' style='font-family:Caladea' >
<text x="101" y="200" >sar</text>
<text x="133" y="200" >kan</text>
<text x="182" y="200" >na</text>
<text x="215" y="200" >ma</text>
</g>
<g class='note' style='font-family:Old Standard TT;font-weight:500' >
<text x="101" y="175" >1</text>
<text x="133" y="175" >1</text>
<text x="182" y="175" >2</text>
<text x="215" y="175" >2</text>
<text x="259.000000" y="181.000000" style="font-family:Noto Music">  <tspan x="259.000000" y="181.000000" font-size="180%"> &#x01D100; </tspan>  </text><g class='beam' >
<line x1="101" y1="156" x2="141" y2="156" style="fill:none;stroke:#000000;stroke-linecap:round;stroke-width:1.2" />
<line x1="182" y1="156" x2="223" y2="156" style="fill:none;stroke:#000000;stroke-linecap:round;stroke-width:1.2" />
</g>
</g>
</g>
<g style="measure-align" >
<g class='lyric' style='font-family:Caladea' >
<text x="277" y="200" >Tu</text>
<text x="310" y="200" >han,</text>
<text x="376" y="200" >Ha</text>
</g>
<g class='note' style='font-family:Old Standard TT;font-weight:500' >
<text x="277" y="175" >3</text>
<text x="310" y="175" >1</text>
<text x="357" y="165" >,</text>
<text x="376" y="175" >1</text>
<text x="409.000000" y="181.000000" style="font-family:Noto Music">  <tspan x="409.000000" y="181.000000" font-size="180%"> &#x01D100; </tspan>  </text><g class='beam' >
<line x1="310" y1="156" x2="384" y2="156" style="fill:none;stroke:#000000;stroke-linecap:round;stroke-width:1.2" />
</g>
</g>
</g>
<g style="measure-align" >
<g class='lyric' style='font-family:Caladea' >
<text x="426" y="200" >le</text>
<text x="516" y="200" >lu</text>
</g>
<g class='note' style='font-family:Old Standard TT;font-weight:500' >
<text x="426" y="175" >2</text>
<text x="459" y="175" >1</text>
<text x="488" y="175" >7</text>
<circle cx="493" cy="180" r="1" style="fill:#000000;fill-opacity:1;stroke:#000000;stroke-width:0.5" />
<text x="516" y="175" >7</text>
<circle cx="521" cy="180" r="1" style="fill:#000000;fill-opacity:1;stroke:#000000;stroke-width:0.5" />
<text x="549.000000" y="181.000000" style="font-family:Noto Music">  <tspan x="549.000000" y="181.000000" font-size="180%"> &#x01D100; </tspan>  </text><g class='beam' >
<line x1="426" y1="156" x2="467" y2="156" style="fill:none;stroke:#000000;stroke-linecap:round;stroke-width:1.2" />
<line x1="488" y1="156" x2="524" y2="156" style="fill:none;stroke:#000000;stroke-linecap:round;stroke-width:1.2" />
</g>
</g>
</g>
<g style="measure-align" >
<g class='lyric' style='font-family:Caladea' >
<text x="567" y="200" >ya;</text>
<text x="632" y="200" >ka</text>
</g>
<g class='note' style='font-family:Old Standard TT;font-weight:500' >
<text x="567" y="175" >6</text>
<circle cx="572" cy="180" r="1" style="fill:#000000;fill-opacity:1;stroke:#000000;stroke-width:0.5" />
<text x="593" y="175" >.</text>
<text x="614" y="165" >,</text>
<text x="632" y="175" >6</text>
<circle cx="637" cy="180" r="1" style="fill:#000000;fill-opacity:1;stroke:#000000;stroke-width:0.5" />
<text x="670.000000" y="181.000000" style="font-family:Noto Music">  <tspan x="670.000000" y="181.000000" font-size="180%"> &#x01D100; </tspan>  </text><g class='beam' >
<line x1="593" y1="156" x2="640" y2="156" style="fill:none;stroke:#000000;stroke-linecap:round;stroke-width:1.2" />
</g>
</g>
</g>
<g style="hyphens" >
<text x="653.7050" y="200">-</text><text x="542.7700" y="200">-</text><text x="471.4300" y="200">-</text><text x="405.0650" y="200">-</text><text x="297.0600" y="200">-</text><text x="201.4600" y="200">-</text><text x="121.8000" y="200">-</text><text x="78.3950" y="200">-</text></g>
<g class='slurties' >
<path d="M433,180 Q461,193 489,182" style="fill:none;stroke:#000000;stroke-linecap:round;stroke-width:1.1;stroke-dasharray:3.5 3.7;stroke-dashoffset:1.750000;" />
</g>
</g>
<g style="staff" >
<g style="measure-align" >
<g class='lyric' style='font-family:Caladea' >
<text x="50" y="280" >sih</text>
<text x="85" y="280" >Nya</text>
<text x="138" y="280" >tak</text>
<text x="185" y="280" >ber</text>
</g>
<g class='note' style='font-family:Old Standard TT;font-weight:500' >
<text x="50" y="255" >1</text>
<text x="85" y="255" >1</text>
<text x="138" y="255" >2</text>
<text x="185" y="255" >2</text>
<text x="220.000000" y="261.000000" style="font-family:Noto Music">  <tspan x="220.000000" y="261.000000" font-size="180%"> &#x01D100; </tspan>  </text><g class='beam' >
<line x1="50" y1="236" x2="93" y2="236" style="fill:none;stroke:#000000;stroke-linecap:round;stroke-width:1.2" />
<line x1="138" y1="236" x2="193" y2="236" style="fill:none;stroke:#000000;stroke-linecap:round;stroke-width:1.2" />
</g>
</g>
</g>
<g style="measure-align" >
<g class='lyric' style='font-family:Caladea' >
<text x="240" y="280" >ku</text>
<text x="275" y="280" >rang,</text>
<text x="350" y="280" >Ha</text>
</g>
<g class='note' style='font-family:Old Standard TT;font-weight:500' >
<text x="240" y="255" >3</text>
<text x="275" y="255" >1</text>
<text x="329" y="245" >,</text>
<text x="350" y="255" >1</text>
<text x="386.000000" y="261.000000" style="font-family:Noto Music">  <tspan x="386.000000" y="261.000000" font-size="180%"> &#x01D100; </tspan>  </text><g class='beam' >
<line x1="275" y1="236" x2="358" y2="236" style="fill:none;stroke:#000000;stroke-linecap:round;stroke-width:1.2" />
</g>
</g>
</g>
<g style="measure-align" >
<g class='lyric' style='font-family:Caladea' >
<text x="406" y="280" >le</text>
<text x="503" y="280" >lu</text>
</g>
<g class='note' style='font-family:Old Standard TT;font-weight:500' >
<text x="406" y="255" >2</text>
<text x="441" y="255" >1</text>
<text x="472" y="255" >2</text>
<text x="503" y="255" >2</text>
<text x="538.000000" y="261.000000" style="font-family:Noto Music">  <tspan x="538.000000" y="261.000000" font-size="180%"> &#x01D100; </tspan>  </text><g class='beam' >
<line x1="406" y1="236" x2="449" y2="236" style="fill:none;stroke:#000000;stroke-linecap:round;stroke-width:1.2" />
<line x1="472" y1="236" x2="511" y2="236" style="fill:none;stroke:#000000;stroke-linecap:round;stroke-width:1.2" />
</g>
</g>
</g>
<g style="measure-align" >
<g class='lyric' style='font-family:Caladea' >
<text x="558" y="280" >ya!</text>
<text x="632" y="280" >Se</text>
</g>
<g class='note' style='font-family:Old Standard TT;font-weight:500' >
<text x="558" y="255" >3</text>
<text x="586" y="255" >.</text>
<text x="610" y="245" >,</text>
<text x="632" y="255" >3</text>
<text x="670.000000" y="261.000000" style="font-family:Noto Music">  <tspan x="670.000000" y="261.000000" font-size="180%"> &#x01D100; </tspan>  </text><g class='beam' >
<line x1="586" y1="236" x2="640" y2="236" style="fill:none;stroke:#000000;stroke-linecap:round;stroke-width:1.2" />
</g>
</g>
</g>
<g style="hyphens" >
<text x="652.8850" y="280">-</text><text x="531.7700" y="280">-</text><text x="454.9300" y="280">-</text><text x="382.0650" y="280">-</text><text x="260.8150" y="280">-</text><text x="218.0900" y="280">-</text><text x="72.0200" y="280">-</text></g>
<g class='slurties' >
<path d="M413,260 Q444,273 475,260" style="fill:none;stroke:#000000;stroke-linecap:round;stroke-width:1.1;stroke-dasharray:3.5 3.6;stroke-dashoffset:1.750000;" />
</g>
</g>
<g style="staff" >
<g style="measure-align" >
<g class='lyric' style='font-family:Caladea' >
<text x="50" y="360" >ka</text>
<text x="85" y="360" >li</text>
<text x="121" y="360" >pun</text>
<text x="174" y="360" >ke</text>
</g>
<g class='note' style='font-family:Old Standard TT;font-weight:500' >
<text x="50" y="335" >6</text>
<text x="85" y="335" >6</text>
<text x="121" y="335" >5</text>
<text x="174" y="335" >4</text>
<text x="209.000000" y="341.000000" style="font-family:Noto Music">  <tspan x="209.000000" y="341.000000" font-size="180%"> &#x01D100; </tspan>  </text><g class='beam' >
<line x1="50" y1="316" x2="93" y2="316" style="fill:none;stroke:#000000;stroke-linecap:round;stroke-width:1.2" />
<line x1="121" y1="316" x2="182" y2="316" style="fill:none;stroke:#000000;stroke-linecap:round;stroke-width:1.2" />
</g>
</g>
</g>
<g style="measure-align" >
<g class='lyric' style='font-family:Caladea' >
<text x="230" y="360" >luh</text>
<text x="266" y="360" >an</text>
<text x="325" y="360" >me</text>
</g>
<g class='note' style='font-family:Old Standard TT;font-weight:500' >
<text x="230" y="335" >3</text>
<text x="266" y="335" >3</text>
<text x="304" y="325" >,</text>
<text x="325" y="335" >3</text>
<text x="361.000000" y="341.000000" style="font-family:Noto Music">  <tspan x="361.000000" y="341.000000" font-size="180%"> &#x01D100; </tspan>  </text><g class='beam' >
<line x1="266" y1="316" x2="333" y2="316" style="fill:none;stroke:#000000;stroke-linecap:round;stroke-width:1.2" />
</g>
</g>
</g>
<g style="measure-align" >
<g class='lyric' style='font-family:Caladea' >
<text x="382" y="360" >nim</text>
<text x="419" y="360" >pa</text>
<text x="462" y="360" >u</text>
<text x="498" y="360" >mat</text>
</g>
<g class='note' style='font-family:Old Standard TT;font-weight:500' >
<text x="382" y="335" >6</text>
<text x="419" y="335" >6</text>
<text x="462" y="335" >5</text>
<text x="498" y="335" >4</text>
<text x="536.000000" y="341.000000" style="font-family:Noto Music">  <tspan x="536.000000" y="341.000000" font-size="180%"> &#x01D100; </tspan>  </text><g class='beam' >
<line x1="382" y1="316" x2="427" y2="316" style="fill:none;stroke:#000000;stroke-linecap:round;stroke-width:1.2" />
<line x1="462" y1="316" x2="506" y2="316" style="fill:none;stroke:#000000;stroke-linecap:round;stroke-width:1.2" />
</g>
</g>
</g>
<g style="measure-align" >
<g class='lyric' style='font-family:Caladea' >
<text x="556" y="360" >Nya,</text>
<text x="632" y="360" >ber</text>
</g>
<g class='note' style='font-family:Old Standard TT;font-weight:500' >
<text x="556" y="335" >3</text>
<text x="585" y="335" >.</text>
<text x="610" y="325" >,</text>
<text x="632" y="335" >3</text>
<text x="670.000000" y="341.000000" style="font-family:Noto Music">  <tspan x="670.000000" y="341.000000" font-size="180%"> &#x01D100; </tspan>  </text><g class='beam' >
<line x1="585" y1="316" x2="640" y2="316" style="fill:none;stroke:#000000;stroke-linecap:round;stroke-width:1.2" />
</g>
</g>
</g>
<g style="hyphens" >
<text x="656.5900" y="360">-</text><text x="534.6000" y="360">-</text><text x="479.1000" y="360">-</text><text x="408.4250" y="360">-</text><text x="358.2650" y="360">-</text><text x="253.7000" y="360">-</text><text x="204.4750" y="360">-</text><text x="102.1200" y="360">-</text><text x="70.2050" y="360">-</text></g>
<g class='slurties' >
<path d="M469,340 Q485,346 501,340" style="fill:none;stroke:#000000;stroke-linecap:round;stroke-width:1.1;stroke-dasharray:3.5 4.6;stroke-dashoffset:1.750000;" />
</g>
</g>
<g style="staff" >
<g style="measure-align" >
<g class='lyric' style='font-family:Caladea' >
<text x="50" y="440" >kat</text>
<text x="89" y="440" >Nya</text>
<text x="146" y="440" >di</text>
<text x="185" y="440" >te</text>
</g>
<g class='note' style='font-family:Old Standard TT;font-weight:500' >
<text x="50" y="415" >4</text>
<text x="89" y="415" >4</text>
<text x="146" y="415" >3</text>
<text x="185" y="415" >2</text>
<text x="224.000000" y="421.000000" style="font-family:Noto Music">  <tspan x="224.000000" y="421.000000" font-size="180%"> &#x01D100; </tspan>  </text><g class='beam' >
<line x1="50" y1="396" x2="97" y2="396" style="fill:none;stroke:#000000;stroke-linecap:round;stroke-width:1.2" />
<line x1="146" y1="396" x2="193" y2="396" style="fill:none;stroke:#000000;stroke-linecap:round;stroke-width:1.2" />
</g>
</g>
</g>
<g style="measure-align" >
<g class='lyric' style='font-family:Caladea' >
<text x="248" y="440" >mu</text>
<text x="288" y="440" >kan,</text>
<text x="366" y="440" >Ha</text>
</g>
<g class='note' style='font-family:Old Standard TT;font-weight:500' >
<text x="248" y="415" >3</text>
<text x="288" y="415" >1</text>
<text x="341" y="405" >,</text>
<text x="366" y="415" >1</text>
<text x="405.000000" y="421.000000" style="font-family:Noto Music">  <tspan x="405.000000" y="421.000000" font-size="180%"> &#x01D100; </tspan>  </text><g class='beam' >
<line x1="288" y1="396" x2="374" y2="396" style="fill:none;stroke:#000000;stroke-linecap:round;stroke-width:1.2" />
</g>
</g>
</g>
<g style="measure-align" >
<g class='lyric' style='font-family:Caladea' >
<text x="429" y="440" >le</text>
<text x="539" y="440" >lu</text>
</g>
<g class='note' style='font-family:Old Standard TT;font-weight:500' >
<text x="429" y="415" >2</text>
<text x="469" y="415" >1</text>
<text x="504" y="415" >7</text>
<circle cx="509" cy="420" r="1" style="fill:#000000;fill-opacity:1;stroke:#000000;stroke-width:0.5" />
<text x="539" y="415" >7</text>
<circle cx="544" cy="420" r="1" style="fill:#000000;fill-opacity:1;stroke:#000000;stroke-width:0.5" />
<text x="578.000000" y="421.000000" style="font-family:Noto Music">  <tspan x="578.000000" y="421.000000" font-size="180%"> &#x01D100; </tspan>  </text><g class='beam' >
<line x1="429" y1="396" x2="477" y2="396" style="fill:none;stroke:#000000;stroke-linecap:round;stroke-width:1.2" />
<line x1="504" y1="396" x2="547" y2="396" style="fill:none;stroke:#000000;stroke-linecap:round;stroke-width:1.2" />
</g>
</g>
</g>
<g style="measure-align" >
<g class='lyric' style='font-family:Caladea' >
<text x="602" y="440" >ya!</text>
</g>
<g class='note' style='font-family:Old Standard TT;font-weight:500' >
<text x="602" y="415" >6</text>
<circle cx="607" cy="420" r="1" style="fill:#000000;fill-opacity:1;stroke:#000000;stroke-width:0.5" />
<text x="636" y="415" >.</text>
<text x="670.000000" y="421.000000" style="font-family:Noto Music">  <tspan x="670.000000" y="421.000000" font-size="180%"> &#x01D102; </tspan>  </text><g class='beam' >
<line x1="633" y1="396" x2="648" y2="396" style="fill:none;stroke:#000000;stroke-linecap:round;stroke-width:1.2" />
</g>
</g>
</g>
<g style="hyphens" >
<text x="571.7700" y="440">-</text><text x="484.4300" y="440">-</text><text x="401.5650" y="440">-</text><text x="273.6050" y="440">-</text><text x="217.3650" y="440">-</text><text x="166.6100" y="440">-</text><text x="74.8100" y="440">-</text></g>
<g class='slurties' >
<path d="M436,420 Q470,433 505,422" style="fill:none;stroke:#000000;stroke-linecap:round;stroke-width:1.1;stroke-dasharray:3.5 4.3;stroke-dashoffset:1.750000;" />
</g>
</g>
<g class='verses' style='font-family:Caladea' >
<g class='verse' >
<text x="81" y="495" >2. </text>
<text x="100" y="495" > Dib&#39;riNya hidup baru,</text>
<text x="100" y="520" > gelap menjadi t&#39;rang;</text>
<text x="100" y="545" > sabdaNya besertamu</text>
<text x="100" y="570" > di ngarai yang kelam.</text>
<text x="100" y="595" > Hai kamu yang selalu</text>
<text x="100" y="620" > padaNya berpegang,</text>
<text x="100" y="645" > Tak usah ragu-ragu:</text>
<text x="100" y="670" > tuntunanNya tent&#39;ram!</text>
<g >
</g>
</g>
<g class='verse' >
<text x="81" y="730" >3. </text>
<text x="100" y="730" > Di dalam kekurangan</text>
<text x="100" y="755" > —Kyrieleison—</text>
<g class='footnotes' style="font-family:'Figtree';font-weight:600;font-style:italic;font-size:60%;" >
<text x="278" y="755" >1) </text>
</g>
<text x="100" y="780" > di tanah pembuangan</text>
<text x="100" y="805" > di tanah Babilon</text>
<g class='footnotes' style="font-family:'Figtree';font-weight:600;font-style:italic;font-size:60%;" >
<text x="278" y="805" >2) </text>
</g>
<text x="100" y="830" > kendati musim zaman</text>
<text x="100" y="855" > menghitam dan mendung,</text>
<text x="100" y="880" > namaMu dibesarkan</text>
<text x="100" y="905" > pujian mendengung.</text>
<g >
</g>
</g>
<g class='verse' >
<text x="473" y="495" >4. </text>
<text x="493" y="495" > Kecapi digantungkan</text>
<text x="493" y="520" > —Miserikordia—</text>
<g class='footnotes' style="font-family:'Figtree';font-weight:600;font-style:italic;font-size:60%;" >
<text x="671" y="520" >3) </text>
</g>
<text x="493" y="545" > ke pohon gandarusa,</text>
<text x="493" y="570" > terbungkam suaranya;</text>
<text x="493" y="595" > tetapi kasih Tuhan</text>
<text x="493" y="620" > di Galilea</text>
<text x="493" y="645" > Akhirnya menghiburkan</text>
<text x="493" y="670" > Haleluya!</text>
<g >
<path d="M584,572 Q590,577 596,572" style="fill:none;stroke:#000000;stroke-linecap:round;stroke-width:1.1" />
</g>
</g>
<g class='verse' >
<text x="474" y="730" >5. </text>
<text x="493" y="730" > Besarkan nama Tuhan</text>
<text x="493" y="755" > Haleluya;</text>
<text x="493" y="780" > di dunia serukan</text>
<text x="493" y="805" > kemuliaanNya!</text>
<text x="493" y="830" > JanjiNya dikukuhkan</text>
<text x="493" y="855" > demi manusia:</text>
<text x="493" y="880" > Besarkan nama Tuhan</text>
<text x="493" y="905" > Haleluya!</text>
<g >
</g>
</g>
</g>
<g class='footnotes' style="font-size:60%;font-family:'Figtree';font-weight:600;font-style:italic" >
<text x="70" y="945" >1) Kyrieleison = Tuhan, kasihanilah</text>
<text x="70" y="960" >2) Babilon = lambang kekacauan/keterasingan</text>
<text x="70" y="975" >3) Misericordia = tunjukkanlah belas kasihan</text>
</g>
<g class='credit' style="font-size:60%;font-family:'Figtree';font-weight:600" >
<text x="50" y="1015" >Syair: </text>
<text x="80" y="1015"><tspan font-style="italic">Wij moeten Gode zingen,</tspan> Willem Barnard ± 1959, terj. H. A. Pandopo 1984</text><text x="50" y="1030">Lagu: Williem Vogel 1959</text><text x="671" y="1030" >© I.S.K</text>
</g>
</svg>
