<?xml version="1.0"?>
<!-- Generated by SVGo -->
<svg width="720" height="2000"
     xmlns="http://www.w3.org/2000/svg"
     xmlns:xlink="http://www.w3.org/1999/xlink" style="background-color: white;">
<defs>
<style type="text/css">
<![CDATA[
@font-face {
  font-family: 'Caladea';
  font-style: normal;
  font-weight: 400;
  src: url(https://fonts.gstatic.com/s/caladea/v8/kJEzBugZ7AAjhybUvRh9_w.ttf) format('truetype');
}
@font-face {
  font-family: 'Figtree';
  font-style: normal;
  font-weight: 400;
  src: url(https://fonts.gstatic.com/s/figtree/v9/_Xmz-HUzqDCFdgfMsYiV_F7wfS-Bs_d_QG5ZyEU.ttf) format('truetype');
}
@font-face {
  font-family: 'Noto Music';
  font-style: normal;
  font-weight: 400;
  src: url(https://fonts.gstatic.com/s/notomusic/v21/pe0rMIiSN5pO63htf1sxEtCaAw.ttf) format('truetype');
}
@font-face {
  font-family: 'Old Standard TT';
  font-style: normal;
  font-weight: 400;
  src: url(https://fonts.gstatic.com/s/oldstandardtt/v22/MwQubh3o1vLImiwAVvYawgcf2eVeqlq9.ttf) format('truetype');
}
]]>
</style>
</defs>
<text x="271" y="100" >88. HAI WARIS KERAJAAN</text>
<text x="50" y="125" >do = g</text>
<text x="126" y="125" >6 (2 x 3) ketuk</text>
<g style="staff" >
<g style="measure-align" >
<g class='lyric' style='font-family:Caladea' >
<text x="50" y="200" >Hai</text>
<text x="50" y="220" >Si</text>
</g>
<g class='note' style='font-family:Old Standard TT;font-weight:500' >
<text x="50" y="175" >1</text>
<text x="90.000000" y="181.000000" style="font-family:Noto Music">  <tspan x="90.000000" y="181.000000" font-size="180%"> &#x01D100; </tspan>  </text><g class='beam' >
<line x1="47" y1="156" x2="62" y2="156" style="fill:none;stroke:#000000;stroke-linecap:round;stroke-width:1.2" />
</g>
</g>
</g>
<g style="measure-align" >
<g class='lyric' style='font-family:Caladea' >
<text x="101" y="200" >wa</text>
<text x="101" y="220" >ap</text>
<text x="140" y="200" >ris</text>
<text x="140" y="220" >kan</text>
<text x="181" y="200" >Ke</text>
<text x="181" y="220" >ke</text>
<text x="242" y="200" >ra</text>
<text x="242" y="220" >da</text>
</g>
<g class='note' style='font-family:Old Standard TT;font-weight:500' >
<text x="101" y="175" >1</text>
<text x="120" y="175" >.</text>
<text x="140" y="175" >5</text>
<text x="181" y="175" >3</text>
<text x="200" y="175" >.</text>
<text x="220" y="175" >2</text>
<text x="242" y="175" >1</text>
<text x="267.000000" y="181.000000" style="font-family:Noto Music">  <tspan x="267.000000" y="181.000000" font-size="180%"> &#x01D100; </tspan>  </text><g class='beam' >
<line x1="101" y1="156" x2="148" y2="156" style="fill:none;stroke:#000000;stroke-linecap:round;stroke-width:1.2" />
<line x1="181" y1="156" x2="250" y2="156" style="fill:none;stroke:#000000;stroke-linecap:round;stroke-width:1.2" />
<line x1="200" y1="159" x2="228" y2="159" style="fill:none;stroke:#000000;stroke-linecap:round;stroke-width:1.2" />
</g>
</g>
</g>
<g style="measure-align" >
<g class='lyric' style='font-family:Caladea' >
<text x="278" y="200" >ja</text>
<text x="278" y="220" >tang</text>
<text x="338" y="200" >an,</text>
<text x="338" y="220" >an</text>
<text x="384" y="200" >Ra</text>
<text x="384" y="220" >Peng</text>
</g>
<g class='note' style='font-family:Old Standard TT;font-weight:500' >
<text x="278" y="175" >7</text>
<circle cx="283" cy="180" r="1" style="fill:#000000;fill-opacity:1;stroke:#000000;stroke-width:0.5" />
<text x="297" y="175" >.</text>
<text x="317" y="175" >1</text>
<text x="338" y="175" >2</text>
<text x="357" y="175" >.</text>
<text x="372" y="165" >,</text>
<text x="384" y="175" >3</text>
<text x="417.000000" y="181.000000" style="font-family:Noto Music">  <tspan x="417.000000" y="181.000000" font-size="180%"> &#x01D100; </tspan>  </text><g class='beam' >
<line x1="278" y1="156" x2="325" y2="156" style="fill:none;stroke:#000000;stroke-linecap:round;stroke-width:1.2" />
<line x1="338" y1="156" x2="392" y2="156" style="fill:none;stroke:#000000;stroke-linecap:round;stroke-width:1.2" />
</g>
</g>
</g>
<g style="measure-align" >
<g class='lyric' style='font-family:Caladea' >
<text x="428" y="200" >ja</text>
<text x="428" y="220" >hi</text>
<text x="467" y="200" >mu</text>
<text x="467" y="220" >bur</text>
<text x="506" y="200" >sam</text>
<text x="506" y="220" >du</text>
<text x="545" y="200" >but</text>
<text x="545" y="220" >ni</text>
</g>
<g class='note' style='font-family:Old Standard TT;font-weight:500' >
<text x="428" y="175" >5</text>
<text x="447" y="175" >.</text>
<text x="467" y="175" >3</text>
<text x="506" y="175" >2</text>
<text x="525" y="175" >.</text>
<text x="545" y="175" >2</text>
<text x="571.000000" y="181.000000" style="font-family:Noto Music">  <tspan x="571.000000" y="181.000000" font-size="180%"> &#x01D100; </tspan>  </text><g class='beam' >
<line x1="428" y1="156" x2="475" y2="156" style="fill:none;stroke:#000000;stroke-linecap:round;stroke-width:1.2" />
<line x1="506" y1="156" x2="553" y2="156" style="fill:none;stroke:#000000;stroke-linecap:round;stroke-width:1.2" />
</g>
</g>
</g>
<g style="measure-align" >
<g class='lyric' style='font-family:Caladea' >
<text x="581" y="200" >lah!</text>
<text x="581" y="220" >a!</text>
</g>
<g class='note' style='font-family:Old Standard TT;font-weight:500' >
<text x="581" y="175" >1</text>
<text x="596" y="175" >.</text>
<text x="611" y="175" >.</text>
<text x="627" y="175" >1</text>
<text x="648" y="175" >.</text>
<text x="670.000000" y="181.000000" style="font-family:Noto Music"> <tspan x="665.000000" y="175.000000">:</tspan> <tspan x="670.000000" y="181.000000" font-size="180%"> &#x01D102; </tspan>  </text><g class='beam' >
<line x1="581" y1="156" x2="619" y2="156" style="fill:none;stroke:#000000;stroke-linecap:round;stroke-width:1.2" />
<line x1="627" y1="156" x2="656" y2="156" style="fill:none;stroke:#000000;stroke-linecap:round;stroke-width:1.2" />
</g>
</g>
</g>
<g style="hyphens" >
<text x="564.4200" y="220">-</text><text x="568.8650" y="200">-</text><text x="528.7600" y="220">-</text><text x="533.6350" y="200">-</text><text x="448.8800" y="220">-</text><text x="448.3700" y="200">-</text><text x="416.6700" y="220">-</text><text x="409.3950" y="200">-</text><text x="317.2400" y="220">-</text><text x="308.8700" y="200">-</text><text x="262.6500" y="220">-</text><text x="261.6600" y="200">-</text><text x="214.8000" y="200">-</text><text x="123.1500" y="220">-</text><text x="125.0300" y="200">-</text><text x="76.0750" y="220">-</text></g>
<g class='slurties' >
<path d="M188,180 Q206,186 223,180" style="fill:none;stroke:#000000;stroke-linecap:round;stroke-width:1.1" />
<path d="M287,182 Q304,188 320,180" style="fill:none;stroke:#000000;stroke-linecap:round;stroke-width:1.1" />
</g>
<g class='slurties' >
<path d="M586,180 Q609,193 632,180" style="fill:none;stroke:#000000;stroke-linecap:round;stroke-width:1.1" />
</g>
</g>
<g style="staff" >
<g style="measure-align" >
<g class='lyric' style='font-family:Caladea' >
<text x="50" y="280" >Dan</text>
</g>
<g class='note' style='font-family:Old Standard TT;font-weight:500' >
<text x="50" y="255" >3</text>
<text x="94.000000" y="261.000000" style="font-family:Noto Music">  <tspan x="94.000000" y="261.000000" font-size="180%"> &#x01D100; </tspan>  </text><g class='beam' >
<line x1="47" y1="236" x2="62" y2="236" style="fill:none;stroke:#000000;stroke-linecap:round;stroke-width:1.2" />
</g>
</g>
</g>
<g style="measure-align" >
<g class='lyric' style='font-family:Caladea' >
<text x="105" y="280" >tam</text>
<text x="145" y="280" >pil</text>
<text x="179" y="280" >ke</text>
<text x="241" y="280" >de</text>
</g>
<g class='note' style='font-family:Old Standard TT;font-weight:500' >
<text x="105" y="255" >3</text>
<text x="125" y="255" >.</text>
<text x="145" y="255" >5</text>
<text x="179" y="255" >5</text>
<text x="199" y="255" >.</text>
<text x="219" y="255" >4</text>
<text x="241" y="255" >3</text>
<text x="268.000000" y="261.000000" style="font-family:Noto Music">  <tspan x="268.000000" y="261.000000" font-size="180%"> &#x01D100; </tspan>  </text><g class='beam' >
<line x1="105" y1="236" x2="153" y2="236" style="fill:none;stroke:#000000;stroke-linecap:round;stroke-width:1.2" />
<line x1="179" y1="236" x2="249" y2="236" style="fill:none;stroke:#000000;stroke-linecap:round;stroke-width:1.2" />
<line x1="199" y1="239" x2="227" y2="239" style="fill:none;stroke:#000000;stroke-linecap:round;stroke-width:1.2" />
</g>
</g>
</g>
<g style="measure-align" >
<g class='lyric' style='font-family:Caladea' >
<text x="279" y="280" >pan,</text>
<text x="363" y="280" >nya</text>
</g>
<g class='note' style='font-family:Old Standard TT;font-weight:500' >
<text x="279" y="255" >2</text>
<text x="294" y="255" >.</text>
<text x="309" y="255" >.</text>
<text x="326" y="255" >2</text>
<text x="341" y="255" >.</text>
<text x="351" y="245" >,</text>
<text x="363" y="255" >1</text>
<text x="390.000000" y="261.000000" style="font-family:Noto Music">  <tspan x="390.000000" y="261.000000" font-size="180%"> &#x01D100; </tspan>  </text><g class='beam' >
<line x1="279" y1="236" x2="317" y2="236" style="fill:none;stroke:#000000;stroke-linecap:round;stroke-width:1.2" />
<line x1="326" y1="236" x2="371" y2="236" style="fill:none;stroke:#000000;stroke-linecap:round;stroke-width:1.2" />
</g>
</g>
</g>
<g style="measure-align" >
<g class='lyric' style='font-family:Caladea' >
<text x="402" y="280" >nyi</text>
<text x="441" y="280" >kan</text>
<text x="484" y="280" >Ho</text>
<text x="523" y="280" >si</text>
</g>
<g class='note' style='font-family:Old Standard TT;font-weight:500' >
<text x="402" y="255" >3</text>
<text x="421" y="255" >.</text>
<text x="441" y="255" >2</text>
<text x="484" y="255" >5</text>
<text x="503" y="255" >.</text>
<text x="523" y="255" >2</text>
<text x="550.000000" y="261.000000" style="font-family:Noto Music">  <tspan x="550.000000" y="261.000000" font-size="180%"> &#x01D100; </tspan>  </text><g class='beam' >
<line x1="402" y1="236" x2="449" y2="236" style="fill:none;stroke:#000000;stroke-linecap:round;stroke-width:1.2" />
<line x1="484" y1="236" x2="531" y2="236" style="fill:none;stroke:#000000;stroke-linecap:round;stroke-width:1.2" />
</g>
</g>
</g>
<g style="measure-align" >
<g class='lyric' style='font-family:Caladea' >
<text x="561" y="280" >a</text>
<text x="623" y="280" >na;</text>
</g>
<g class='note' style='font-family:Old Standard TT;font-weight:500' >
<text x="561" y="255" >3</text>
<text x="581" y="255" >.</text>
<text x="601" y="255" >3</text>
<text x="623" y="255" >1</text>
<text x="646" y="255" >.</text>
<text x="665" y="245" >,</text>
<g class='beam' >
<line x1="561" y1="236" x2="609" y2="236" style="fill:none;stroke:#000000;stroke-linecap:round;stroke-width:1.2" />
<line x1="623" y1="236" x2="678" y2="236" style="fill:none;stroke:#000000;stroke-linecap:round;stroke-width:1.2" />
</g>
</g>
</g>
<g style="hyphens" >
<text x="590.4900" y="280">-</text><text x="542.0900" y="280">-</text><text x="507.6500" y="280">-</text><text x="427.0100" y="280">-</text><text x="389.5500" y="280">-</text><text x="262.4200" y="280">-</text><text x="132.6000" y="280">-</text></g>
<g class='slurties' >
<path d="M186,260 Q204,266 222,260" style="fill:none;stroke:#000000;stroke-linecap:round;stroke-width:1.1" />
<path d="M568,260 Q586,266 604,260" style="fill:none;stroke:#000000;stroke-linecap:round;stroke-width:1.1" />
</g>
<g class='slurties' >
<path d="M284,260 Q308,273 331,260" style="fill:none;stroke:#000000;stroke-linecap:round;stroke-width:1.1" />
</g>
</g>
<g style="staff" >
<g style="measure-align" >
<g class='lyric' style='font-family:Caladea' >
<text x="50" y="360" >ber</text>
</g>
<g class='note' style='font-family:Old Standard TT;font-weight:500' >
<text x="50" y="335" >3</text>
<text x="78.000000" y="341.000000" style="font-family:Noto Music">  <tspan x="78.000000" y="341.000000" font-size="180%"> &#x01D100; </tspan>  </text><g class='beam' >
<line x1="47" y1="316" x2="62" y2="316" style="fill:none;stroke:#000000;stroke-linecap:round;stroke-width:1.2" />
</g>
</g>
</g>
<g style="measure-align" >
<g class='lyric' style='font-family:Caladea' >
<text x="91" y="360" >ha</text>
<text x="133" y="360" >rap</text>
<text x="161" y="360" >lah</text>
<text x="227" y="360" >pa</text>
</g>
<g class='note' style='font-family:Old Standard TT;font-weight:500' >
<text x="91" y="335" >5</text>
<text x="112" y="335" >.</text>
<text x="133" y="335" >4</text>
<text x="161" y="335" >3</text>
<text x="182" y="335" >.</text>
<text x="203" y="335" >2</text>
<text x="227" y="335" >1</text>
<text x="255.000000" y="341.000000" style="font-family:Noto Music">  <tspan x="255.000000" y="341.000000" font-size="180%"> &#x01D100; </tspan>  </text><g class='beam' >
<line x1="91" y1="316" x2="141" y2="316" style="fill:none;stroke:#000000;stroke-linecap:round;stroke-width:1.2" />
<line x1="161" y1="316" x2="235" y2="316" style="fill:none;stroke:#000000;stroke-linecap:round;stroke-width:1.2" />
<line x1="182" y1="319" x2="211" y2="319" style="fill:none;stroke:#000000;stroke-linecap:round;stroke-width:1.2" />
</g>
</g>
</g>
<g style="measure-align" >
<g class='lyric' style='font-family:Caladea' >
<text x="267" y="360" >da</text>
<text x="333" y="360" >Nya,</text>
<text x="385" y="360" >pe</text>
</g>
<g class='note' style='font-family:Old Standard TT;font-weight:500' >
<text x="267" y="335" >7</text>
<circle cx="272" cy="340" r="1" style="fill:#000000;fill-opacity:1;stroke:#000000;stroke-width:0.5" />
<text x="288" y="335" >.</text>
<text x="310" y="335" >1</text>
<text x="333" y="335" >2</text>
<text x="354" y="335" >.</text>
<text x="371" y="325" >,</text>
<text x="385" y="335" >3</text>
<text x="412.000000" y="341.000000" style="font-family:Noto Music">  <tspan x="412.000000" y="341.000000" font-size="180%"> &#x01D100; </tspan>  </text><g class='beam' >
<line x1="267" y1="316" x2="318" y2="316" style="fill:none;stroke:#000000;stroke-linecap:round;stroke-width:1.2" />
<line x1="333" y1="316" x2="393" y2="316" style="fill:none;stroke:#000000;stroke-linecap:round;stroke-width:1.2" />
</g>
</g>
</g>
<g style="measure-align" >
<g class='lyric' style='font-family:Caladea' >
<text x="425" y="360" >nuh</text>
<text x="467" y="360" >de</text>
<text x="495" y="360" >ngan</text>
<text x="537" y="360" >i</text>
</g>
<g class='note' style='font-family:Old Standard TT;font-weight:500' >
<text x="425" y="335" >5</text>
<text x="446" y="335" >.</text>
<text x="467" y="335" >3</text>
<text x="495" y="335" >2</text>
<text x="516" y="335" >.</text>
<text x="537" y="335" >2</text>
<text x="561.000000" y="341.000000" style="font-family:Noto Music">  <tspan x="561.000000" y="341.000000" font-size="180%"> &#x01D100; </tspan>  </text><g class='beam' >
<line x1="425" y1="316" x2="475" y2="316" style="fill:none;stroke:#000000;stroke-linecap:round;stroke-width:1.2" />
<line x1="495" y1="316" x2="545" y2="316" style="fill:none;stroke:#000000;stroke-linecap:round;stroke-width:1.2" />
</g>
</g>
</g>
<g style="measure-align" >
<g class='lyric' style='font-family:Caladea' >
<text x="574" y="360" >man!</text>
</g>
<g class='note' style='font-family:Old Standard TT;font-weight:500' >
<text x="574" y="335" >1</text>
<text x="591" y="335" >.</text>
<text x="608" y="335" >.</text>
<text x="625" y="335" >1</text>
<text x="647" y="335" >.</text>
<text x="670.000000" y="341.000000" style="font-family:Noto Music">  <tspan x="670.000000" y="341.000000" font-size="180%"> &#x01D102; </tspan>  </text><g class='beam' >
<line x1="574" y1="316" x2="616" y2="316" style="fill:none;stroke:#000000;stroke-linecap:round;stroke-width:1.2" />
<line x1="625" y1="316" x2="655" y2="316" style="fill:none;stroke:#000000;stroke-linecap:round;stroke-width:1.2" />
</g>
</g>
</g>
<g style="hyphens" >
<text x="552.4500" y="360">-</text><text x="483.4200" y="360">-</text><text x="407.4200" y="360">-</text><text x="302.6500" y="360">-</text><text x="249.6500" y="360">-</text><text x="155.1800" y="360">-</text><text x="114.9200" y="360">-</text><text x="76.0900" y="360">-</text></g>
<g class='slurties' >
<path d="M168,340 Q187,346 206,340" style="fill:none;stroke:#000000;stroke-linecap:round;stroke-width:1.1" />
<path d="M276,342 Q295,348 313,340" style="fill:none;stroke:#000000;stroke-linecap:round;stroke-width:1.1" />
</g>
<g class='slurties' >
<path d="M579,340 Q605,353 630,340" style="fill:none;stroke:#000000;stroke-linecap:round;stroke-width:1.1" />
</g>
</g>
<g class='verses' style='font-family:Caladea' >
<g class='verse' >
<text x="81" y="415" >2. </text>
<text x="100" y="415" > Hai insan yang berduka,</text>
<text x="100" y="440" > Rajamu t&#39;lah dekat:</text>
<text x="100" y="465" > Penolong orang susah,</text>
<text x="100" y="490" > Pelindung kaum penat.</text>
<text x="100" y="515" > Besarkan hatimu</text>
<text x="100" y="540" > Dengan penghiburanNya:</text>
<text x="100" y="565" > Firman dan SakramenNya</text>
<text x="100" y="590" > membuatmu teguh!</text>
<g >
<path d="M179,492 Q184,497 190,492" style="fill:none;stroke:#000000;stroke-linecap:round;stroke-width:1.1" />
</g>
</g>
<g class='verse' >
<text x="81" y="650" >3. </text>
<text x="100" y="650" > Hai kamu yang merana,</text>
<text x="100" y="675" > Rajamu tak lemah.</text>
<text x="100" y="700" > Tengadahlah: di sana</text>
<text x="100" y="725" > bersinar bintangNya!</text>
<text x="100" y="750" > Di dalam kemelut</text>
<text x="100" y="775" > kasihNya tak berkurang</text>
<text x="100" y="800" > Dan sungguh menghiburkan</text>
<text x="100" y="825" > melawan kuasa maut.</text>
<g >
<path d="M172,827 Q178,832 185,827" style="fill:none;stroke:#000000;stroke-linecap:round;stroke-width:1.1" />
<path d="M219,827 Q224,832 231,827" style="fill:none;stroke:#000000;stroke-linecap:round;stroke-width:1.1" />
</g>
</g>
<g class='verse' >
<text x="80" y="885" >4. </text>
<text x="100" y="885" > Hai mari, fakir miskin</text>
<text x="100" y="910" > Rajamu tak lelah</text>
<text x="100" y="935" > merawat yang merintih,</text>
<text x="100" y="960" > mengangkat yang rendah.</text>
<text x="100" y="985" > Kembang dan burung pun</text>
<text x="100" y="1010" > dib&#39;riNya sandang-pangan</text>
<text x="100" y="1035" > Seluruh Kerajaan</text>
<text x="100" y="1060" > kekal warisanmu.</text>
<g >
</g>
</g>
<g class='verse' >
<text x="459" y="415" >5. </text>
<text x="478" y="415" > Hai umat yang sengsara,</text>
<text x="478" y="440" > Rajamu tidak jauh:</text>
<text x="478" y="465" > keluh-kesah dan lara</text>
<text x="478" y="490" > niscaya Ia tahu.</text>
<text x="478" y="515" > Lenyap selamanya</text>
<text x="478" y="540" > cemas dan dukacita:</text>
<text x="478" y="565" > Ternyata Allah kita</text>
<text x="478" y="590" > mengingat anakNya.</text>
<g >
<path d="M576,442 Q581,447 587,442" style="fill:none;stroke:#000000;stroke-linecap:round;stroke-width:1.1" />
<path d="M553,492 Q563,497 574,492" style="fill:none;stroke:#000000;stroke-linecap:round;stroke-width:1.1" />
</g>
</g>
<g class='verse' >
<text x="459" y="650" >6. </text>
<text x="478" y="650" > Hai, bangunlah, saudara,</text>
<text x="478" y="675" > Rajamu songsonglah,</text>
<text x="478" y="700" > yang datang berkendara</text>
<text x="478" y="725" > lembut dan mulia!</text>
<text x="478" y="750" > Arahkan langkahmu</text>
<text x="478" y="775" > menyambut Jurus&#39;lamat</text>
<text x="478" y="800" > Yang mau menaruh rahmat</text>
<text x="478" y="825" > selaku Penebus.</text>
<g >
<path d="M527,802 Q532,807 539,802" style="fill:none;stroke:#000000;stroke-linecap:round;stroke-width:1.1" />
</g>
</g>
<g class='verse' >
<text x="459" y="885" >7. </text>
<text x="478" y="885" > Ya Yesus, Raja agung,</text>
<text x="478" y="910" > Kaub&#39;rikan diriMu;</text>
<text x="478" y="935" > cela dan aib Kautanggung</text>
<text x="478" y="960" > dan dosa Kautebus.</text>
<text x="478" y="985" > Seluruh umatMu</text>
<text x="478" y="1010" > menyanyi Hosiana</text>
<text x="478" y="1035" > Dan sampai selamanya</text>
<text x="478" y="1060" > padaMu bersyukur.</text>
<g >
<path d="M543,937 Q547,942 552,937" style="fill:none;stroke:#000000;stroke-linecap:round;stroke-width:1.1" />
</g>
</g>
</g>
<g class='credit' style="font-size:60%;font-family:'Figtree';font-weight:600" >
<text x="50" y="1120" >Syair: </text>
<text x="80" y="1120"><tspan font-style="italic">Auf, auf, ihr Reichsgenossen,</tspan> Johann Rist (1607 – 1667), terj. H.A. Pandopo 1978/81</text><text x="50" y="1135">Lagu: Jerman, abad ke-16</text><text x="630" y="1135" >BE 41, NR 174</text>
</g>
</svg>
