<?xml version="1.0"?>
<!-- Generated by SVGo -->
<svg width="720" height="2000"
     xmlns="http://www.w3.org/2000/svg"
     xmlns:xlink="http://www.w3.org/1999/xlink" style="background-color: white;">
<defs>
<style type="text/css">
<![CDATA[
@font-face {
  font-family: 'Caladea';
  font-style: normal;
  font-weight: 400;
  src: url(https://fonts.gstatic.com/s/caladea/v8/kJEzBugZ7AAjhybUvRh9_w.ttf) format('truetype');
}
@font-face {
  font-family: 'Figtree';
  font-style: normal;
  font-weight: 400;
  src: url(https://fonts.gstatic.com/s/figtree/v9/_Xmz-HUzqDCFdgfMsYiV_F7wfS-Bs_d_QG5ZyEU.ttf) format('truetype');
}
@font-face {
  font-family: 'Noto Music';
  font-style: normal;
  font-weight: 400;
  src: url(https://fonts.gstatic.com/s/notomusic/v21/pe0rMIiSN5pO63htf1sxEtCaAw.ttf) format('truetype');
}
@font-face {
  font-family: 'Old Standard TT';
  font-style: normal;
  font-weight: 400;
  src: url(https://fonts.gstatic.com/s/oldstandardtt/v22/MwQubh3o1vLImiwAVvYawgcf2eVeqlq9.ttf) format('truetype');
}
]]>
</style>
</defs>
<text x="235" y="100" >101. ALAM RAYA BERKUMANDANG </text>
<text x="50" y="125" >do = g</text>
<text x="126" y="125" >4 ketuk</text>
<g style="staff" >
<g style="measure-align" >
<g class='lyric' style='font-family:Caladea' >
<text x="50" y="200" >A</text>
<text x="50" y="220" >da</text>
<text x="75" y="200" >lam</text>
<text x="75" y="220" >ri</text>
<text x="116" y="200" >ra</text>
<text x="116" y="220" >gu</text>
<text x="140" y="200" >ya</text>
<text x="140" y="220" >nung</text>
</g>
<g class='note' style='font-family:Old Standard TT;font-weight:500' >
<text x="50" y="175" >3</text>
<text x="75" y="175" >3</text>
<text x="116" y="175" >3</text>
<text x="140" y="175" >3</text>
<text x="190" y="175" >5</text>
<text x="210.000000" y="181.000000" style="font-family:Noto Music">  <tspan x="210.000000" y="181.000000" font-size="180%"> &#x01D100; </tspan>  </text><g class='beam' >
<line x1="140" y1="156" x2="198" y2="156" style="fill:none;stroke:#000000;stroke-linecap:round;stroke-width:1.2" />
</g>
</g>
</g>
<g style="measure-align" >
<g class='lyric' style='font-family:Caladea' >
<text x="220" y="200" >ber</text>
<text x="220" y="220" >da</text>
<text x="256" y="200" >ku</text>
<text x="256" y="220" >ri</text>
<text x="282" y="200" >man</text>
<text x="282" y="220" >pa</text>
<text x="312" y="200" >dang</text>
<text x="312" y="220" >dang</text>
</g>
<g class='note' style='font-family:Old Standard TT;font-weight:500' >
<text x="220" y="175" >5</text>
<text x="238" y="175" >.</text>
<text x="256" y="175" >4</text>
<text x="282" y="175" >3</text>
<text x="312" y="175" >1</text>
<text x="359.000000" y="181.000000" style="font-family:Noto Music">  <tspan x="359.000000" y="181.000000" font-size="180%"> &#x01D100; </tspan>  </text><g class='beam' >
<line x1="238" y1="156" x2="264" y2="156" style="fill:none;stroke:#000000;stroke-linecap:round;stroke-width:1.2" />
</g>
</g>
</g>
<g style="measure-align" >
<g class='lyric' style='font-family:Caladea' >
<text x="369" y="200" >o</text>
<text x="369" y="220" >ki</text>
<text x="393" y="200" >leh</text>
<text x="393" y="220" >dung</text>
<text x="442" y="200" >pu</text>
<text x="442" y="220" >ma</text>
<text x="466" y="200" >ji</text>
<text x="466" y="220" >lai</text>
<path d="M470,223 Q476,229 482,223" style="fill:none;stroke:#000000;stroke-linecap:round;stroke-width:1.1" />
<text x="491" y="200" >an</text>
<text x="491" y="220" >kat</text>
</g>
<g class='note' style='font-family:Old Standard TT;font-weight:500' >
<text x="369" y="175" >3</text>
<text x="393" y="175" >3</text>
<text x="442" y="175" >2</text>
<text x="466" y="175" >3</text>
<text x="491" y="175" >3</text>
<text x="527" y="175" >5</text>
<text x="548.000000" y="181.000000" style="font-family:Noto Music">  <tspan x="548.000000" y="181.000000" font-size="180%"> &#x01D100; </tspan>  </text><g class='beam' >
<line x1="393" y1="156" x2="450" y2="156" style="fill:none;stroke:#000000;stroke-linecap:round;stroke-width:1.2" />
<line x1="491" y1="156" x2="535" y2="156" style="fill:none;stroke:#000000;stroke-linecap:round;stroke-width:1.2" />
</g>
</g>
</g>
<g style="measure-align" >
<g class='lyric' style='font-family:Caladea' >
<text x="557" y="200" >mu</text>
<text x="557" y="220" >ber</text>
<text x="593" y="200" >li</text>
<text x="593" y="220" >ge</text>
<text x="618" y="200" >a.</text>
<text x="618" y="220" >ma.</text>
</g>
<g class='note' style='font-family:Old Standard TT;font-weight:500' >
<text x="557" y="175" >5</text>
<text x="575" y="175" >.</text>
<text x="593" y="175" >4</text>
<text x="618" y="175" >3</text>
<text x="644" y="175" >.</text>
<text x="670.000000" y="181.000000" style="font-family:Noto Music"> <tspan x="665.000000" y="175.000000">:</tspan> <tspan x="670.000000" y="181.000000" font-size="180%"> &#x01D102; </tspan>  </text><g class='beam' >
<line x1="575" y1="156" x2="601" y2="156" style="fill:none;stroke:#000000;stroke-linecap:round;stroke-width:1.2" />
</g>
</g>
</g>
<g style="hyphens" >
<text x="607.4350" y="220">-</text><text x="604.6200" y="200">-</text><text x="580.5900" y="220">-</text><text x="580.6050" y="200">-</text><text x="482.3000" y="220">-</text><text x="477.8300" y="200">-</text><text x="459.0600" y="200">-</text><text x="382.1650" y="220">-</text><text x="379.5750" y="200">-</text><text x="299.6500" y="220">-</text><text x="273.1700" y="200">-</text><text x="240.6500" y="220">-</text><text x="243.5900" y="200">-</text><text x="132.0900" y="220">-</text><text x="129.8600" y="200">-</text><text x="65.8400" y="220">-</text><text x="62.0250" y="200">-</text></g>
<g class='slurties' >
<path d="M147,180 Q170,193 193,180" style="fill:none;stroke:#000000;stroke-linecap:round;stroke-width:1.1" />
<path d="M498,180 Q514,186 530,180" style="fill:none;stroke:#000000;stroke-linecap:round;stroke-width:1.1" />
</g>
</g>
<g style="staff" >
<g style="measure-align" >
<g class='lyric' style='font-family:Caladea' >
<text x="50" y="305" >Glo</text>
</g>
<g class='note' style='font-family:Old Standard TT;font-weight:500' >
<text x="50" y="280" >5</text>
<text x="74" y="280" >.</text>
<text x="98" y="280" >6</text>
<text x="125" y="280" >5</text>
<text x="151" y="280" >4</text>
<text x="177" y="280" >3</text>
<text x="204.000000" y="286.000000" style="font-family:Noto Music">  <tspan x="204.000000" y="286.000000" font-size="180%"> &#x01D100; </tspan>  </text><g class='beam' >
<line x1="98" y1="261" x2="133" y2="261" style="fill:none;stroke:#000000;stroke-linecap:round;stroke-width:1.2" />
<line x1="151" y1="261" x2="185" y2="261" style="fill:none;stroke:#000000;stroke-linecap:round;stroke-width:1.2" />
</g>
</g>
</g>
<g style="measure-align" >
<g class='lyric' style='font-family:Caladea' >
</g>
<g class='note' style='font-family:Old Standard TT;font-weight:500' >
<text x="219" y="280" >4</text>
<text x="238" y="280" >.</text>
<text x="257" y="280" >5</text>
<text x="283" y="280" >4</text>
<text x="309" y="280" >3</text>
<text x="336" y="280" >2</text>
<text x="362.000000" y="286.000000" style="font-family:Noto Music">  <tspan x="362.000000" y="286.000000" font-size="180%"> &#x01D100; </tspan>  </text><g class='beam' >
<line x1="257" y1="261" x2="291" y2="261" style="fill:none;stroke:#000000;stroke-linecap:round;stroke-width:1.2" />
<line x1="309" y1="261" x2="344" y2="261" style="fill:none;stroke:#000000;stroke-linecap:round;stroke-width:1.2" />
</g>
</g>
</g>
<g style="measure-align" >
<g class='lyric' style='font-family:Caladea' >
</g>
<g class='note' style='font-family:Old Standard TT;font-weight:500' >
<text x="377" y="280" >3</text>
<text x="396" y="280" >.</text>
<text x="415" y="280" >4</text>
<text x="441" y="280" >3</text>
<text x="468" y="280" >2</text>
<text x="494" y="280" >1</text>
<text x="520.000000" y="286.000000" style="font-family:Noto Music">  <tspan x="520.000000" y="286.000000" font-size="180%"> &#x01D100; </tspan>  </text><g class='beam' >
<line x1="415" y1="261" x2="449" y2="261" style="fill:none;stroke:#000000;stroke-linecap:round;stroke-width:1.2" />
<line x1="468" y1="261" x2="502" y2="261" style="fill:none;stroke:#000000;stroke-linecap:round;stroke-width:1.2" />
</g>
</g>
</g>
<g style="measure-align" >
<g class='lyric' style='font-family:Caladea' >
<text x="573" y="305" >ri</text>
<text x="604" y="305" >a</text>
</g>
<g class='note' style='font-family:Old Standard TT;font-weight:500' >
<text x="536" y="280" >2</text>
<text x="554" y="280" >.</text>
<text x="573" y="280" >2</text>
<text x="604" y="280" >5</text>
<circle cx="609" cy="285" r="1" style="fill:#000000;fill-opacity:1;stroke:#000000;stroke-width:0.5" />
<text x="627" y="280" >.</text>
<text x="646" y="270" >,</text>
<text x="670.000000" y="286.000000" style="font-family:Noto Music">  <tspan x="670.000000" y="286.000000" font-size="180%"> &#x01D100; </tspan>  </text><g class='beam' >
<line x1="554" y1="261" x2="581" y2="261" style="fill:none;stroke:#000000;stroke-linecap:round;stroke-width:1.2" />
</g>
</g>
</g>
<g style="hyphens" >
<text x="588.6200" y="305">-</text><text x="126.4756" y="305">-</text><text x="182.2911" y="305">-</text><text x="238.1067" y="305">-</text><text x="293.9222" y="305">-</text><text x="349.7378" y="305">-</text><text x="405.5533" y="305">-</text><text x="461.3689" y="305">-</text><text x="517.1844" y="305">-</text></g>
<g class='slurties' >
<path d="M57,285 Q140,301 222,285" style="fill:none;stroke:#000000;stroke-linecap:round;stroke-width:1.1" />
<path d="M226,285 Q303,301 380,285" style="fill:none;stroke:#000000;stroke-linecap:round;stroke-width:1.1" />
<path d="M384,285 Q462,301 539,285" style="fill:none;stroke:#000000;stroke-linecap:round;stroke-width:1.1" />
</g>
</g>
<g style="staff" >
<g style="measure-align" >
<g class='lyric' style='font-family:Caladea' >
<text x="50" y="385" >in</text>
<text x="86" y="385" >ex</text>
<text x="118" y="385" >cel</text>
<text x="149" y="385" >sis</text>
</g>
<g class='note' style='font-family:Old Standard TT;font-weight:500' >
<text x="50" y="360" >1</text>
<text x="86" y="360" >2</text>
<text x="118" y="360" >3</text>
<text x="149" y="360" >4</text>
<text x="189.000000" y="366.000000" style="font-family:Noto Music">  <tspan x="189.000000" y="366.000000" font-size="180%"> &#x01D100; </tspan>  </text></g>
</g>
<g style="measure-align" >
<g class='lyric' style='font-family:Caladea' >
<text x="206" y="385" >De</text>
<text x="256" y="385" >o!</text>
</g>
<g class='note' style='font-family:Old Standard TT;font-weight:500' >
<text x="206" y="360" >3</text>
<text x="231" y="360" >.</text>
<text x="256" y="360" >2</text>
<text x="281" y="360" >.</text>
<text x="301" y="350" >,</text>
<text x="319.000000" y="366.000000" style="font-family:Noto Music">  <tspan x="319.000000" y="366.000000" font-size="180%"> &#x01D100; </tspan>  </text></g>
</g>
<g style="measure-align" >
<g class='lyric' style='font-family:Caladea' >
<text x="336" y="385" >Glo</text>
</g>
<g class='note' style='font-family:Old Standard TT;font-weight:500' >
<text x="336" y="360" >5</text>
<text x="361" y="360" >.</text>
<text x="386" y="360" >6</text>
<text x="414" y="360" >5</text>
<text x="441" y="360" >4</text>
<text x="469" y="360" >3</text>
<text x="497.000000" y="366.000000" style="font-family:Noto Music">  <tspan x="497.000000" y="366.000000" font-size="180%"> &#x01D100; </tspan>  </text><g class='beam' >
<line x1="386" y1="341" x2="422" y2="341" style="fill:none;stroke:#000000;stroke-linecap:round;stroke-width:1.2" />
<line x1="441" y1="341" x2="477" y2="341" style="fill:none;stroke:#000000;stroke-linecap:round;stroke-width:1.2" />
</g>
</g>
</g>
<g style="measure-align" >
<g class='lyric' style='font-family:Caladea' >
</g>
<g class='note' style='font-family:Old Standard TT;font-weight:500' >
<text x="513" y="360" >4</text>
<text x="533" y="360" >.</text>
<text x="554" y="360" >5</text>
<text x="581" y="360" >4</text>
<text x="609" y="360" >3</text>
<text x="636" y="360" >2</text>
<text x="670.000000" y="366.000000" style="font-family:Noto Music">  <tspan x="670.000000" y="366.000000" font-size="180%"> &#x01D100; </tspan>  </text><g class='beam' >
<line x1="554" y1="341" x2="589" y2="341" style="fill:none;stroke:#000000;stroke-linecap:round;stroke-width:1.2" />
<line x1="609" y1="341" x2="644" y2="341" style="fill:none;stroke:#000000;stroke-linecap:round;stroke-width:1.2" />
</g>
</g>
</g>
<g style="hyphens" >
<text x="408.8833" y="385">-</text><text x="461.1067" y="385">-</text><text x="513.3300" y="385">-</text><text x="565.5533" y="385">-</text><text x="617.7767" y="385">-</text><text x="234.2600" y="385">-</text><text x="137.3000" y="385">-</text><text x="104.1500" y="385">-</text></g>
<g class='slurties' >
<path d="M343,365 Q430,381 516,365" style="fill:none;stroke:#000000;stroke-linecap:round;stroke-width:1.1" />
<path d="M520,365 Q595,381 670,365" style="fill:none;stroke:#000000;stroke-linecap:round;stroke-width:1.1" />
</g>
</g>
<g style="staff" >
<g style="measure-align" >
<g class='lyric' style='font-family:Caladea' >
</g>
<g class='note' style='font-family:Old Standard TT;font-weight:500' >
<text x="50" y="440" >3</text>
<text x="68" y="440" >.</text>
<text x="86" y="440" >4</text>
<text x="112" y="440" >3</text>
<text x="137" y="440" >2</text>
<text x="162" y="440" >1</text>
<text x="188.000000" y="446.000000" style="font-family:Noto Music">  <tspan x="188.000000" y="446.000000" font-size="180%"> &#x01D100; </tspan>  </text><g class='beam' >
<line x1="86" y1="421" x2="120" y2="421" style="fill:none;stroke:#000000;stroke-linecap:round;stroke-width:1.2" />
<line x1="137" y1="421" x2="170" y2="421" style="fill:none;stroke:#000000;stroke-linecap:round;stroke-width:1.2" />
</g>
</g>
</g>
<g style="measure-align" >
<g class='lyric' style='font-family:Caladea' >
<text x="238" y="465" >ri</text>
<text x="267" y="465" >a</text>
</g>
<g class='note' style='font-family:Old Standard TT;font-weight:500' >
<text x="202" y="440" >2</text>
<text x="220" y="440" >.</text>
<text x="238" y="440" >2</text>
<text x="267" y="440" >5</text>
<circle cx="272" cy="445" r="1" style="fill:#000000;fill-opacity:1;stroke:#000000;stroke-width:0.5" />
<text x="290" y="440" >.</text>
<text x="308" y="430" >,</text>
<text x="323.000000" y="446.000000" style="font-family:Noto Music">  <tspan x="323.000000" y="446.000000" font-size="180%"> &#x01D100; </tspan>  </text><g class='beam' >
<line x1="220" y1="421" x2="246" y2="421" style="fill:none;stroke:#000000;stroke-linecap:round;stroke-width:1.2" />
</g>
</g>
</g>
<g style="measure-align" >
<g class='lyric' style='font-family:Caladea' >
<text x="338" y="465" >in</text>
<text x="371" y="465" >ex</text>
<text x="400" y="465" >cel</text>
<text x="430" y="465" >sis</text>
</g>
<g class='note' style='font-family:Old Standard TT;font-weight:500' >
<text x="338" y="440" >1</text>
<text x="371" y="440" >2</text>
<text x="400" y="440" >3</text>
<text x="430" y="440" >4</text>
<text x="467.000000" y="446.000000" style="font-family:Noto Music">  <tspan x="467.000000" y="446.000000" font-size="180%"> &#x01D100; </tspan>  </text></g>
</g>
<g style="measure-align" >
<g class='lyric' style='font-family:Caladea' >
<text x="482" y="465" >De</text>
</g>
<g class='note' style='font-family:Old Standard TT;font-weight:500' >
<text x="482" y="440" >3</text>
<text x="504" y="440" >.</text>
<text x="527" y="440" >2</text>
<text x="545" y="440" >.</text>
<text x="563.000000" y="446.000000" style="font-family:Noto Music">  <tspan x="563.000000" y="446.000000" font-size="180%"> &#x01D100; </tspan>  </text></g>
</g>
<g style="measure-align" >
<g class='lyric' style='font-family:Caladea' >
<text x="577" y="465" >o.</text>
</g>
<g class='note' style='font-family:Old Standard TT;font-weight:500' >
<text x="577" y="440" >1</text>
<text x="600" y="440" >.</text>
<text x="623" y="440" >.</text>
<text x="646" y="440" >.</text>
<text x="670.000000" y="446.000000" style="font-family:Noto Music">  <tspan x="670.000000" y="446.000000" font-size="180%"> &#x01D102; </tspan>  </text></g>
</g>
<g style="hyphens" >
<text x="532.7600" y="465">-</text><text x="418.8000" y="465">-</text><text x="387.6500" y="465">-</text><text x="252.6200" y="465">-</text><text x="50.0000" y="465">-</text><text x="97.0000" y="465">-</text><text x="144.0000" y="465">-</text><text x="191.0000" y="465">-</text></g>
<g class='slurties' >
<path d="M35,445 Q44,451 53,445" style="fill:none;stroke:#000000;stroke-linecap:round;stroke-width:1.1" />
<path d="M57,445 Q131,461 205,445" style="fill:none;stroke:#000000;stroke-linecap:round;stroke-width:1.1" />
<path d="M489,445 Q510,458 530,445" style="fill:none;stroke:#000000;stroke-linecap:round;stroke-width:1.1" />
</g>
</g>
<g class='verses' style='font-family:Caladea' >
<g class='verse' >
<text x="81" y="520" >2. </text>
<text x="100" y="520" > Hai gembala, kar&#39;na apa</text>
<text x="100" y="545" > sambutan ini menggegar?</text>
<text x="100" y="570" > Bagi Maharaja siapa</text>
<text x="100" y="595" > sorak sorgawi terdengar?</text>
<text x="100" y="620" > Gloria in excelsis Deo!</text>
<text x="100" y="645" > Gloria in excelcis Deo!</text>
<g >
<path d="M207,572 Q211,577 215,572" style="fill:none;stroke:#000000;stroke-linecap:round;stroke-width:1.1" />
</g>
</g>
<g class='verse' >
<text x="81" y="705" >3. </text>
<text x="100" y="705" > Sudah lahir Jurus&#39;lamat—</text>
<text x="100" y="730" > itu berita lagunya.</text>
<text x="100" y="755" > Puji dan syukur dan hormat</text>
<text x="100" y="780" > dipersembahkan padaNya.</text>
<text x="100" y="805" > Gloria in excelsis Deo!</text>
<text x="100" y="830" > Gloria in excelcis Deo!</text>
<g >
</g>
</g>
<g class='verse' >
<text x="457" y="520" >4. </text>
<text x="477" y="520" > Ikutilah, hai gembala,</text>
<text x="477" y="545" > nyanyian sorga yang merdu;</text>
<text x="477" y="570" > mainkan suling dan rebana</text>
<text x="477" y="595" > dan bersyukur di hatimu!</text>
<text x="477" y="620" > Gloria in excelsis Deo!</text>
<text x="477" y="645" > Gloria in excelcis Deo!</text>
<g >
<path d="M490,572 Q494,577 499,572" style="fill:none;stroke:#000000;stroke-linecap:round;stroke-width:1.1" />
</g>
</g>
<g class='verse' >
<text x="458" y="705" >5. </text>
<text x="477" y="705" > Mari, kita pun kesana</text>
<text x="477" y="730" > untuk melihat Putera.</text>
<text x="477" y="755" > Mari, kita persembahkan</text>
<text x="477" y="780" > suara dan hati padaNya!</text>
<text x="477" y="805" > Gloria in excelsis Deo!</text>
<text x="477" y="830" > Gloria in excelcis Deo!</text>
<g >
<path d="M483,782 Q489,787 495,782" style="fill:none;stroke:#000000;stroke-linecap:round;stroke-width:1.1" />
</g>
</g>
</g>
<g class='credit' style="font-size:60%;font-family:'Figtree';font-weight:600" >
<text x="50" y="890" >Syair: </text>
<text x="80" y="890"><tspan font-style="italic">Les&#160;anges&#160;dans&#160;nos&#160;campagnes&#160;/&#160;Angels&#160;We&#160;Have&#160;Heard&#160;on&#160;High,</tspan>&#160;Nyanyian&#160;Natal&#160;Prancis&#160;abad&#160;ke-18,&#160;terj.&#160;Yamuger&#160;/&#160;Pan.&#160;Lit.&#160;K.A.J.</text><text x="80" y="905">1980</text><text x="50" y="920">Lagu: Prancis abad ke-18</text><text x="670" y="920" >NR 38</text>
</g>
</svg>
